# xmcd
#
# Track frame offsets: 
#        150
#        26228
#        49498
#        75133
#        99808
#        123562
#        146615
#        164917
#        184888
#        207811
#        230155
#        249150
#        271558
#        291699
#        310195
#
# Disc length: 4330 seconds
#
# Revision: 1
# Processed by: cddbd v1.5.1PL2 Copyright (c) Steve Scherf et al.
# Submitted via: ExactAudioCopy v0.95a5
#
DISCID=d810e80f
DTITLE=???? - MY ALL <YUKI KOYANAGI SINGLES 1999-2003>
DYEAR=1900
DGENRE=
TTITLE0=?????????????~You were mine~
TTITLE1=fairyland (trans@k feat.Yuki Koyanagi)
TTITLE2=??
TTITLE3=can't hold me back
TTITLE4=be alive
TTITLE5=??????~??????????
TTITLE6=DEEP DEEP
TTITLE7=beautiful world
TTITLE8=my all..
TTITLE9=remain~???
TTITLE10=HIT ON
TTITLE11=Endless
TTITLE12=Lovin'you
TTITLE13=ON THE RADIO<?????????>
TTITLE14=?????
EXTD=
EXTT0=
EXTT1=
EXTT2=
EXTT3=
EXTT4=
EXTT5=
EXTT6=
EXTT7=
EXTT8=
EXTT9=
EXTT10=
EXTT11=
EXTT12=
EXTT13=
EXTT14=
PLAYORDER=
